<svg width="20" height="20" viewBox="0 0 20 20" fill="none" xmlns="http://www.w3.org/2000/svg">
<path d="M10.1529 4.59982C6.40178 4.59982 3.17595 6.87419 1.8999 10.1018C3.17595 13.3294 6.40176 15.6038 10.1529 15.6038C13.9041 15.6038 17.131 13.3294 18.4059 10.1018C17.131 6.87417 13.9041 4.59982 10.1529 4.59982M10.1529 13.7695C8.0526 13.7695 6.40178 12.1564 6.40178 10.1018C6.40178 8.04723 8.0526 6.43413 10.1529 6.43413C12.2544 6.43413 13.9041 8.04723 13.9041 10.1018C13.9041 12.1564 12.2544 13.7695 10.1529 13.7695ZM10.1529 7.90104C8.87799 7.90104 7.90204 8.85526 7.90204 10.1018C7.90204 11.3484 8.87799 12.3026 10.1529 12.3026C11.429 12.3026 12.4038 11.3484 12.4038 10.1018C12.4038 8.85526 11.429 7.90104 10.1529 7.90104" fill="#B3B6BD"/>
</svg>
