<svg width="150" height="120" viewBox="0 0 150 120" fill="none" xmlns="http://www.w3.org/2000/svg">
<g clip-path="url(#clip0_35_162)">
<path fill-rule="evenodd" clip-rule="evenodd" d="M7.41504 119.326H11.7971V90.6738H7.41504V119.326Z" fill="black"/>
<path fill-rule="evenodd" clip-rule="evenodd" d="M0 95.0559H19.2135V90.6738H0V95.0559Z" fill="black"/>
<path fill-rule="evenodd" clip-rule="evenodd" d="M80.8994 119.325H95.3938V114.943H80.8994V119.325Z" fill="black"/>
<path fill-rule="evenodd" clip-rule="evenodd" d="M80.8994 119.326H85.2814V90.6738H80.8994V119.326Z" fill="black"/>
<path fill-rule="evenodd" clip-rule="evenodd" d="M99.1016 119.324H103.484V102.302H99.1016V119.324Z" fill="black"/>
<path fill-rule="evenodd" clip-rule="evenodd" d="M99.1016 99.9431H103.484V95.561H99.1016V99.9431Z" fill="black"/>
<path d="M129.943 90.6738H134.325V105.245L143.877 96.2356H149.241L139.252 105.587L150 119.326H144.852L136.292 108.357L134.325 110.216V119.326H129.943V90.6738Z" fill="black"/>
<path d="M44.4942 101.63C48.7758 101.63 52.2469 105.101 52.2471 109.382C52.2471 113.664 48.776 117.135 44.4942 117.135C40.2127 117.135 36.7422 113.664 36.7422 109.382C36.7425 105.101 40.2128 101.631 44.4942 101.63Z" stroke="black" stroke-width="4.38202"/>
<path d="M25.4568 99.438H21.2363V119.326H25.4568V106.464C26.2575 105.397 27.2955 104.573 28.5708 103.99C29.6221 103.505 30.8092 103.162 32.1318 102.962V98.853C31.0642 99.1296 29.6038 99.5099 28.5263 100.033C27.4487 100.557 26.4256 101.179 25.4568 101.9V99.438Z" fill="black"/>
<path d="M111.742 119.326V106.484V100.535V98.0898H107.36V119.326H111.742Z" fill="black"/>
<path d="M125.899 106.095C125.899 100.308 123.262 97.4146 117.988 97.4146C116.71 97.4146 115.555 97.6739 114.522 98.1925C112.692 99.2347 111.991 100.192 111.75 100.95L111.741 102.532C113.595 101.043 116.498 100.818 117.765 101.136C120.73 101.881 121.324 105.025 121.25 106.504V119.325H125.899V106.095Z" fill="black"/>
<path d="M62.8654 119.326V106.484V100.535V98.0898H58.4834V119.326H62.8654Z" fill="black"/>
<path d="M77.0225 106.095C77.0225 100.308 74.3855 97.4146 69.1115 97.4146C67.8338 97.4146 66.6784 97.6739 65.6454 98.1925C63.8155 99.2347 63.1147 100.192 62.8743 100.95L62.8652 102.532C64.7187 101.043 67.6215 100.818 68.8888 101.136C71.8543 101.881 72.4478 105.025 72.3738 106.504V119.325H77.0225V106.095Z" fill="black"/>
<mask id="mask0_35_162" style="mask-type:alpha" maskUnits="userSpaceOnUse" x="40" y="0" width="70" height="70">
<path d="M100 0H50C44.4772 0 40 4.47716 40 10V60C40 65.5228 44.4772 70 50 70H100C105.523 70 110 65.5228 110 60V10C110 4.47716 105.523 0 100 0Z" fill="url(#paint0_linear_35_162)"/>
</mask>
<g mask="url(#mask0_35_162)">
<path fill-rule="evenodd" clip-rule="evenodd" d="M99.3647 54.8138L131.907 48.9341L94.5792 94.303L99.3647 54.8138ZM94.6909 52.6018L89.6436 94.2585L62.405 25.8895L94.6909 52.6018ZM96.8985 48.0684L65.9196 22.4375L116.55 31.7323L96.8985 48.0684ZM121.927 33.6328L132.672 43.8229L103.282 49.1323L121.927 33.6328ZM123.055 27.9513L52.8105 15.056L89.7807 107.852L141.29 45.2454L123.055 27.9513Z" fill="white"/>
<rect x="40" width="70" height="70" rx="8.75" fill="#0D1FFF"/>
<mask id="mask1_35_162" style="mask-type:alpha" maskUnits="userSpaceOnUse" x="40" y="0" width="70" height="70">
<rect x="40" width="70" height="70" rx="8.75" fill="#0D1FFF"/>
</mask>
<g mask="url(#mask1_35_162)">
<path d="M117.783 24.0991L50.3096 14.6152L87.9951 107.896L139.942 41.4097L117.783 24.0991ZM127.379 40.1933L105.45 44.8853L116.855 31.9729L127.376 40.1933H127.379ZM109.727 29.8076L95.6515 45.7432L67.6936 23.9022L109.727 29.8105V29.8076ZM87.3429 88.1971L63.5246 29.2405L92.455 51.8425L87.3458 88.1971H87.3429ZM94.0533 89.1373L99.1095 53.1675L126.782 47.2474L94.0562 89.1373H94.0533Z" fill="white"/>
</g>
</g>
</g>
<defs>
<linearGradient id="paint0_linear_35_162" x1="75" y1="0" x2="75" y2="70" gradientUnits="userSpaceOnUse">
<stop stop-color="#0D1FFF"/>
<stop offset="1" stop-color="#081399"/>
</linearGradient>
<clipPath id="clip0_35_162">
<rect width="150" height="120" fill="white"/>
</clipPath>
</defs>
</svg>
