<?xml version="1.0" encoding="UTF-8"?>
<svg version="1.1" xmlns="http://www.w3.org/2000/svg" width="512" height="512">
<path d="M0 0 C0.84256348 0.41507813 1.68512695 0.83015625 2.55322266 1.2578125 C14.25088648 7.07792674 25.38698658 13.37337326 36 21 C37.03253906 21.73863281 38.06507813 22.47726563 39.12890625 23.23828125 C46.71779407 28.80874258 53.91227093 34.81226509 61 41 C61.5048291 41.44021484 62.0096582 41.88042969 62.52978516 42.33398438 C67.78881138 46.94662094 72.78879262 51.61657143 77.28515625 56.98046875 C78.46449703 58.36935071 79.68364935 59.72508265 80.93359375 61.05078125 C99.80308331 81.09744998 112.80039122 105.06188807 124 130 C124.33386719 130.72687012 124.66773438 131.45374023 125.01171875 132.20263672 C128.16901423 139.1945296 130.03274789 144.548446 127.33203125 151.9296875 C126.67267578 153.44949219 126.67267578 153.44949219 126 155 C125.46219572 156.31508623 124.92443893 157.63019188 124.38671875 158.9453125 C117.51452259 175.31119085 109.45968127 191.62055841 99 206 C98.30519531 206.96679688 97.61039062 207.93359375 96.89453125 208.9296875 C89.74627702 218.6715561 82.12433864 228.20464584 73.40625 236.59375 C71.83028996 238.11076273 71.83028996 238.11076273 70.0625 240.5 C67.75404599 243.29812608 65.25611289 245.52634355 62.49609375 247.87109375 C60.65397182 249.44223061 58.83724725 251.04326038 57.03515625 252.66015625 C6.83103876 297.40714104 -62.10629853 319.1775835 -128.82763672 315.859375 C-182.38455523 312.6362539 -236.34280086 294.45044909 -278 260 C-278.54060059 259.55414551 -279.08120117 259.10829102 -279.63818359 258.64892578 C-283.46750434 255.48055933 -287.24609017 252.25719384 -291 249 C-292.38251953 247.80503906 -292.38251953 247.80503906 -293.79296875 246.5859375 C-298.24818781 242.66318789 -302.36505425 238.66613033 -306.18359375 234.12109375 C-307.46920577 232.61983068 -308.79993587 231.15666797 -310.16015625 229.72265625 C-329.3911345 209.42850197 -342.62163556 185.33614624 -354 160 C-354.50080078 158.90969482 -354.50080078 158.90969482 -355.01171875 157.79736328 C-358.12773854 150.89687623 -360.06549959 145.50520369 -357.40234375 138.2109375 C-356.93957031 137.15132812 -356.47679687 136.09171875 -356 135 C-355.70754395 134.30165039 -355.41508789 133.60330078 -355.11376953 132.88378906 C-347.96526212 115.86488346 -339.82610004 99.00309927 -329 84 C-328.30390625 83.030625 -327.6078125 82.06125 -326.890625 81.0625 C-316.77050823 67.28191547 -305.42385123 52.87872865 -292.25 41.8828125 C-290.49183975 40.41157424 -288.76967726 38.89729053 -287.0625 37.3671875 C-211.8058057 -29.76876363 -95.23458889 -45.1365984 0 0 Z M-206.61376953 64.41113281 C-229.33741909 90.45648528 -237.96540811 122.99142031 -236 157 C-233.38395121 188.42891944 -217.63011047 217.38356373 -194 238 C-167.34375061 260.10106753 -134.65307649 268.63470695 -100.46582031 265.7890625 C-69.40558943 262.40207326 -40.55127107 246.37481549 -20.65673828 222.37988281 C0.81065656 195.26738788 9.26301176 162.32351412 5.53125 128.1015625 C1.40398751 97.2844486 -14.89540687 68.64993036 -39.2734375 49.34765625 C-90.63714732 10.3887389 -163.14352729 16.74757163 -206.61376953 64.41113281 Z " fill="#000000" transform="translate(371,111)"/>
<path d="M0 0 C6.7355049 5.02988074 12.10075471 10.69921299 16.99487305 17.56884766 C17.83985352 18.75220703 17.83985352 18.75220703 18.7019043 19.95947266 C29.23942948 36.07254914 31.73044609 57.34055251 28.3112793 76.06103516 C25.29784026 88.08978352 19.92639037 98.11933659 11.99487305 107.56884766 C11.27299805 108.55884766 10.55112305 109.54884766 9.80737305 110.56884766 C-0.83252179 123.08637099 -18.5578931 131.46482881 -34.77661133 132.79638672 C-56.6501984 133.93073125 -74.90915904 129.91847534 -92.00512695 115.56884766 C-92.99512695 114.84697266 -93.98512695 114.12509766 -95.00512695 113.38134766 C-107.52265029 102.74145282 -115.90110811 85.01608151 -117.23266602 68.79736328 C-118.42125652 45.87775015 -113.57794599 26.73999686 -98.36254883 9.05126953 C-73.21326432 -18.41392031 -29.69859387 -21.25315016 0 0 Z " fill="#000000" transform="translate(300.005126953125,196.43115234375)"/>
</svg>
