<?xml version="1.0" encoding="UTF-8"?>
<svg version="1.1" xmlns="http://www.w3.org/2000/svg" width="512" height="512">
<path d="M0 0 C2.24008214 0.90819446 3.44150311 1.87020504 5.14559989 3.57585854 C5.74372353 4.1672403 6.34184717 4.75862206 6.95809577 5.36792449 C7.6069737 6.02468345 8.25585162 6.68144241 8.92439251 7.35810316 C9.62292947 8.05317859 10.32146643 8.74825402 11.04117118 9.46439234 C13.40051969 11.81574497 15.74893912 14.17772443 18.09762935 16.53971994 C19.79573389 18.23651732 21.49449708 19.93265575 23.19386487 21.62818796 C26.89759699 25.3265948 30.59661005 29.02965556 34.2915781 32.73681581 C39.78591156 38.24922847 45.28879646 43.753044 50.79349348 49.25510523 C60.05228596 58.50995257 69.30406948 67.7717768 78.55190639 77.03757036 C87.71108721 86.21449014 96.87335262 95.38831198 106.03977565 104.55799806 C106.60928922 105.12771785 107.17880279 105.69743764 107.76557435 106.28442166 C110.65775292 109.1776152 113.5499869 112.07075335 116.44224222 114.96387016 C136.93861979 135.46655231 157.42803021 155.97618413 177.91336422 176.4899 C197.8170721 196.4211521 217.72392207 216.34925735 237.6350439 236.27310312 C238.24857478 236.88702858 238.86210565 237.50095403 239.49422837 238.13348328 C245.65544893 244.29865933 251.81673352 250.46377138 257.97806504 256.62883653 C270.52988764 269.18826817 283.08128272 281.74812701 295.63241939 294.30824411 C296.20952618 294.88576277 296.78663297 295.46328143 297.38122784 296.05830065 C335.93246742 334.63715153 374.47370819 373.22599128 413.01346187 411.81631601 C412.07114626 412.92281778 411.12779714 414.02843944 410.18402462 415.13369882 C409.65881033 415.74948801 409.13359604 416.36527719 408.59246616 416.99972666 C404.89950526 421.24834936 400.90977121 425.22404784 396.95389156 429.22598398 C395.90133596 430.29528329 394.85420025 431.36994214 393.81229 432.44961679 C392.29486169 434.0215096 390.76189748 435.57657949 389.22439937 437.12881601 C388.3199609 438.05307382 387.41552242 438.97733164 386.48367672 439.92959726 C384.01346187 441.81631601 384.01346187 441.81631601 382.0670927 441.61970747 C379.70193558 440.69444525 378.47330524 439.64592369 376.68515377 437.84877146 C375.73031345 436.90011713 375.73031345 436.90011713 374.75618343 435.93229807 C374.06925914 435.23458795 373.38233486 434.53687784 372.67459469 433.818025 C371.94249279 433.08636118 371.21039089 432.35469736 370.45610408 431.60086191 C368.03575403 429.17842028 365.62620568 426.74552224 363.21658687 424.31240976 C361.54143968 422.63166796 359.86562933 420.95158688 358.18918209 419.27214182 C353.77668228 414.84818274 349.37326517 410.41528869 344.97165279 405.98050058 C340.479301 401.45747149 335.9784542 396.94291357 331.47830562 392.42764414 C322.64833709 383.56549232 313.82764504 374.69416646 305.01346187 365.81631601 C303.43815261 366.28587605 301.86308637 366.75625141 300.28812008 367.22696054 C299.41097851 367.48881143 298.53383693 367.75066233 297.63011532 368.02044809 C295.28280797 368.73439308 292.94907703 369.4782035 290.61893062 370.24600351 C272.41965739 376.22649544 254.04792204 380.5465657 235.01346187 382.81631601 C234.24985347 382.91130381 233.48624508 383.0062916 232.69949703 383.10415781 C206.15210221 385.98094703 178.18751437 384.90389747 152.01346187 379.81631601 C150.48592281 379.51950937 150.48592281 379.51950937 148.92752437 379.21670664 C101.25329863 369.6509042 56.09997506 347.86178994 20.23611812 314.85537851 C18.21784084 313.00381306 16.15997052 311.21798601 14.07596187 309.44131601 C5.15472019 301.63522954 -2.64352426 293.10747641 -9.98653813 283.81631601 C-10.95140141 282.65229257 -10.95140141 282.65229257 -11.93575688 281.46475351 C-27.67728914 262.37056225 -40.39158929 240.59406947 -50.67403813 218.12881601 C-51.15228031 217.09369882 -51.6305225 216.05858164 -52.12325688 214.99209726 C-54.6156581 205.82321855 -49.6546169 198.04868546 -45.67403813 190.00381601 C-45.36074559 189.36280954 -45.04745304 188.72180307 -44.72466679 188.06137216 C-31.27578682 160.59930561 -13.08305915 136.83902576 8.01346187 114.81631601 C8.51700191 114.28941172 9.02054195 113.76250742 9.53934078 113.21963632 C15.3096863 107.21501202 21.28041989 101.76520011 27.79861812 96.59365976 C30.04644966 94.85595278 30.04644966 94.85595278 32.01346187 92.81631601 C31.23450054 92.04845774 30.4555392 91.28059946 29.65297298 90.48947275 C22.32573342 83.26344302 15.01161914 76.02435909 7.71026115 68.77217615 C3.95581699 65.04386303 0.19684832 61.32035774 -3.57271977 57.60733164 C-7.20810255 54.02614149 -10.83125456 50.43299367 -14.44613095 46.83110941 C-15.82973682 45.4567662 -17.2177471 44.0868429 -18.61012097 42.72138346 C-20.55469592 40.81292716 -22.48323373 38.88957265 -24.40865727 36.96182382 C-24.99199833 36.39645914 -25.5753394 35.83109445 -26.17635746 35.24859751 C-27.75303288 33.65109384 -27.75303288 33.65109384 -29.98653813 30.81631601 C-29.51851568 26.20735328 -26.24552655 23.60765218 -23.12325688 20.48428476 C-22.24066952 19.59027712 -22.24066952 19.59027712 -21.34025212 18.67820871 C-20.09577603 17.4229402 -18.8473138 16.17161278 -17.59518071 14.92398203 C-15.67740391 13.00718009 -13.7819506 11.07003848 -11.88692875 9.13076914 C-10.67534062 7.91397603 -9.46249165 6.6984368 -8.24825688 5.48428476 C-7.68144703 4.90107965 -7.11463719 4.31787455 -6.53065129 3.71699655 C-2.51176829 -0.23224906 -2.51176829 -0.23224906 0 0 Z M99.01346187 159.81631601 C86.27222453 181.39509244 83.66092081 210.83673251 89.51834469 234.8895582 C98.30980213 267.15526987 117.05519039 293.30646469 146.04861812 310.19131601 C155.35507825 315.44463418 164.65288315 319.22876148 175.01346187 321.81631601 C176.25096187 322.13471445 177.48846187 322.45311289 178.76346187 322.78115976 C203.16552608 328.20661871 229.62403244 325.01103073 252.01346187 313.81631601 C250.69778459 310.94928816 249.2499847 308.74367033 247.13455562 306.40884531 C246.2609338 305.44346086 246.2609338 305.44346086 245.36966304 304.4585737 C242.66514189 301.54355226 239.93263486 298.65686734 237.1794775 295.78775156 C235.74444202 294.2745914 234.32859251 292.74298403 232.93338375 291.193025 C224.66187194 281.41286125 224.66187194 281.41286125 213.19461422 277.08511484 C209.38463598 277.1720523 205.75141682 277.77695767 202.02238826 278.52421701 C189.0099774 280.41622869 173.65835956 273.74446535 163.01346187 266.81631601 C160.77348468 265.00021705 158.65131107 263.13375121 156.57205562 261.13662851 C155.09956322 259.60085909 155.09956322 259.60085909 153.01346187 259.81631601 C152.61900875 258.95006601 152.61900875 258.95006601 152.21658687 258.06631601 C150.95011898 255.69785657 149.49024397 253.86978661 147.76346187 251.81631601 C140.80675252 242.9360259 134.7251426 231.28623702 134.01346187 219.81631601 C134.28169196 217.96083095 134.6037703 216.11267767 134.96658687 214.27334726 C136.29145755 206.24351785 137.28336678 198.66302469 132.52902584 191.61605966 C123.29408303 179.92664701 111.69633537 169.05492412 100.01346187 159.81631601 C99.68346187 159.81631601 99.35346187 159.81631601 99.01346187 159.81631601 Z " fill="#000000" transform="translate(52.986538127064705,35.1836839877069)"/>
<path d="M0 0 C0.80953125 0.12713379 1.6190625 0.25426758 2.453125 0.38525391 C25.82864797 4.14271644 48.62681131 11.92295932 70 22 C70.72461426 22.3388623 71.44922852 22.67772461 72.19580078 23.02685547 C108.30204316 40.06155283 142.56308729 66.31696798 167 98 C168.37401691 99.68830056 169.74901224 101.37580532 171.125 103.0625 C209.87522375 151.86189769 209.87522375 151.86189769 208.83203125 172.2890625 C207.8515293 176.66219326 206.31022361 180.44404711 204.4375 184.5 C204.07817383 185.28898682 203.71884766 186.07797363 203.34863281 186.89086914 C191.59574181 212.38540453 176.11043057 235.42840975 157 256 C155.82897238 257.35039727 154.66214859 258.70445393 153.5 260.0625 C137.53990603 278.34473235 137.53990603 278.34473235 128 282 C119.22356047 273.40881735 110.46876678 264.79622339 101.74104214 256.15553951 C97.687817 252.14408718 93.62747986 248.14042218 89.55004883 244.15356445 C85.61626679 240.30662524 81.70228124 236.44053958 77.80131721 232.56033516 C76.30869727 231.08251151 74.80904661 229.61175467 73.30239677 228.14823723 C71.19490042 226.09871457 69.11368719 224.02560379 67.03686523 221.94506836 C66.40677048 221.34373581 65.77667572 220.74240326 65.12748718 220.12284851 C63.5060499 218.46970374 62.15663013 217.00626548 61 215 C61.06629944 211.27857971 61.06629944 211.27857971 62 208 C62.29777344 206.87722656 62.59554687 205.75445312 62.90234375 204.59765625 C63.24394531 203.43105469 63.58554687 202.26445312 63.9375 201.0625 C71.87859851 172.55783354 68.07407446 142.16114849 54.01367188 116.17724609 C49.93822609 108.99337567 45.25383404 102.35990437 40 96 C39.54367187 95.40960938 39.08734375 94.81921875 38.6171875 94.2109375 C34.1541162 88.62572256 28.63677538 84.34969875 23 80 C22.21753906 79.39027344 21.43507813 78.78054687 20.62890625 78.15234375 C9.06669498 69.5927978 -4.21300888 63.88034718 -18 60 C-19.08539063 59.6803125 -20.17078125 59.360625 -21.2890625 59.03125 C-42.39895704 53.79017273 -64.70998087 56.3874672 -85.25927734 62.57299805 C-86.14996918 62.84089645 -87.04066101 63.10879486 -87.95834351 63.3848114 C-88.63209015 63.58782364 -89.30583679 63.79083588 -90 64 C-96.52504513 57.52121765 -103.04473254 51.03710575 -109.55757141 44.54605293 C-112.58164545 41.53243307 -115.6075588 38.52070867 -118.63769531 35.51318359 C-121.55978875 32.61276035 -124.47702362 29.70753268 -127.39089966 26.79885483 C-128.50557425 25.68788649 -129.62201266 24.57868505 -130.74020386 23.47125626 C-132.30150799 21.92438964 -133.85652212 20.37145907 -135.41015625 18.81689453 C-136.29840088 17.93309113 -137.18664551 17.04928772 -138.10180664 16.13870239 C-140 14 -140 14 -140 12 C-117.73373249 4.99397259 -95.31904095 -0.92984024 -72 -3 C-70.99549805 -3.0925708 -70.99549805 -3.0925708 -69.97070312 -3.18701172 C-46.69999231 -5.21593355 -23.01155041 -3.79915845 0 0 Z " fill="#000000" transform="translate(303,73)"/>
<path d="M0 0 C18.13048014 -1.25760556 35.07830665 4.49065346 49.3125 15.6875 C62.98126145 27.71819416 72.72204522 44.70798961 74.16308594 63.07910156 C74.31648329 67.06175139 74.22374569 71.0222989 74 75 C69.12961401 70.93804723 64.53653996 66.68518114 60.05493164 62.20019531 C59.40042023 61.54904251 58.74590881 60.89788971 58.07156372 60.227005 C55.93180134 58.09666163 53.7957539 55.96264281 51.66015625 53.828125 C50.16807744 52.33926188 48.6759244 50.85047314 47.18370056 49.36175537 C44.0695019 46.25352293 40.95735531 43.14325228 37.84643555 40.03173828 C33.85093891 36.03613943 29.84857273 32.04749779 25.84446049 28.06053543 C22.76740888 24.99456506 19.69487516 21.9240984 16.6236248 18.85231781 C15.14876878 17.37864498 13.67228378 15.90660062 12.19417 14.43619537 C10.1377987 12.38955825 8.08778479 10.3367596 6.03930664 8.28222656 C5.11605339 7.36740257 5.11605339 7.36740257 4.17414856 6.43409729 C0 2.22832409 0 2.22832409 0 0 Z " fill="#000000" transform="translate(252,174)"/>
</svg>
